<?xml version="1.0" encoding="UTF-8" standalone="no"?>
<!DOCTYPE svg PUBLIC "-//W3C//DTD SVG 1.1//EN" "http://www.w3.org/Graphics/SVG/1.1/DTD/svg11.dtd">
<svg width="100%" height="100%" viewBox="0 0 626 1132" version="1.1" xmlns="http://www.w3.org/2000/svg" xmlns:xlink="http://www.w3.org/1999/xlink" xml:space="preserve" xmlns:serif="http://www.serif.com/" style="fill-rule:evenodd;clip-rule:evenodd;stroke-linecap:round;stroke-linejoin:round;stroke-miterlimit:1.5;">
    <g transform="matrix(1,0,0,1,-1560.23,-205.86)">
        <g transform="matrix(1,0,0,1,641.175,-840.192)">
            <path d="M1075.2,1363.75L1542.16,1095.02L1458.2,1046.55L988.061,1317.99L1075.2,1363.75Z" style="fill:rgb(191,233,184);stroke:black;stroke-width:1px;"/>
        </g>
        <g transform="matrix(1,0,0,1,-13.9847,12.9001)">
            <g transform="matrix(1,0,0,1,13.7474,-9.62987)">
                <g transform="matrix(1,0,0,1,638.662,137.963)">
                    <path d="M1076.95,382.967L1076.95,1195.78L1547.17,923.313L1543.9,114.244L1076.95,382.967Z" style="fill:rgb(133,189,123);stroke:black;stroke-width:1px;"/>
                </g>
                <g transform="matrix(0.343314,0,0,0.360954,1120.62,100.592)">
                    <circle cx="2052.44" cy="1309.89" r="6.641" style="fill:rgb(148,31,20);stroke:black;stroke-width:2.84px;stroke-linecap:butt;"/>
                </g>
                <g transform="matrix(0.343314,0,0,0.360954,1118.34,99.208)">
                    <path d="M2048.06,1314.89L2055.76,1319.48C2055.76,1319.48 2053.6,1317.46 2053.04,1316.51C2052.57,1315.68 2052.48,1314.56 2052.44,1313.73C2052.4,1312.99 2052.55,1312.23 2052.81,1311.53C2053.09,1310.79 2053.62,1309.91 2054.12,1309.31C2054.58,1308.76 2055.16,1308.28 2055.8,1307.96C2056.52,1307.59 2057.57,1307.24 2058.46,1307.12C2059.34,1307 2061.12,1307.24 2061.12,1307.24L2062.39,1307.97C2062.39,1307.97 2057.64,1305.06 2055.78,1304.15C2054.74,1303.65 2053.39,1303.35 2052.44,1303.25C2051.65,1303.18 2050.76,1303.37 2050.08,1303.59C2049.45,1303.79 2048.85,1304.15 2048.35,1304.59C2047.79,1305.08 2047.33,1305.64 2046.9,1306.23C2046.55,1306.71 2046.15,1307.68 2046.01,1308.23C2045.86,1308.79 2045.75,1309.34 2045.8,1309.89C2045.86,1310.62 2045.98,1311.74 2046.36,1312.57C2046.74,1313.4 2048.06,1314.89 2048.06,1314.89Z" style="fill:rgb(230,106,81);stroke:black;stroke-width:2.84px;stroke-linecap:butt;"/>
                </g>
            </g>
            <g transform="matrix(1,0,0,1,93.0896,-58.9438)">
                <g transform="matrix(0.343314,0,0,0.360954,1097.59,120.525)">
                    <circle cx="2052.44" cy="1309.89" r="6.641" style="fill:rgb(148,31,20);stroke:black;stroke-width:2.84px;stroke-linecap:butt;"/>
                </g>
                <g transform="matrix(0.343314,0,0,0.360954,1095.31,119.141)">
                    <path d="M2048.06,1314.89L2055.76,1319.48C2055.76,1319.48 2053.6,1317.46 2053.04,1316.51C2052.57,1315.68 2052.48,1314.56 2052.44,1313.73C2052.4,1312.99 2052.55,1312.23 2052.81,1311.53C2053.09,1310.79 2053.62,1309.91 2054.12,1309.31C2054.58,1308.76 2055.16,1308.28 2055.8,1307.96C2056.52,1307.59 2057.57,1307.24 2058.46,1307.12C2059.34,1307 2061.12,1307.24 2061.12,1307.24L2062.39,1307.97C2062.39,1307.97 2057.64,1305.06 2055.78,1304.15C2054.74,1303.65 2053.39,1303.35 2052.44,1303.25C2051.65,1303.18 2050.76,1303.37 2050.08,1303.59C2049.45,1303.79 2048.85,1304.15 2048.35,1304.59C2047.79,1305.08 2047.33,1305.64 2046.9,1306.23C2046.55,1306.71 2046.15,1307.68 2046.01,1308.23C2045.86,1308.79 2045.75,1309.34 2045.8,1309.89C2045.86,1310.62 2045.98,1311.74 2046.36,1312.57C2046.74,1313.4 2048.06,1314.89 2048.06,1314.89Z" style="fill:rgb(230,106,81);stroke:black;stroke-width:2.84px;stroke-linecap:butt;"/>
                </g>
            </g>
        </g>
        <path d="M1831.78,1134.02L1824.09,1138.12L1824.18,1143.33L1837.2,1136.64L1831.78,1134.02Z" style="fill:rgb(191,233,184);stroke:black;stroke-width:1px;stroke-linecap:butt;"/>
        <path d="M1836.89,1136.07L1831.84,1133.62L1830.48,1090.74L1835.72,1088.09L1836.89,1136.07Z" style="fill:rgb(78,141,67);stroke:black;stroke-width:1px;stroke-linecap:butt;"/>
        <path d="M1856.14,972.639L1856.28,998.269L1861.12,1000.99L1860.99,975.289L1856.14,972.639Z" style="fill:rgb(78,141,67);stroke:black;stroke-width:1px;stroke-linecap:butt;"/>
        <path d="M1854.53,936.195L1855.03,913.84L1860.73,904.698L1859.64,939.071L1854.53,936.195Z" style="fill:rgb(78,141,67);stroke:black;stroke-width:1px;stroke-linecap:butt;"/>
        <path d="M1994.86,1083.78L1996.36,1116.84L2006.48,1122.99L2005.13,1088.98L1994.86,1083.78Z" style="fill:rgb(78,141,67);stroke:black;stroke-width:1px;stroke-linecap:butt;"/>
        <path d="M2112.55,1013.78L1994.9,1083.21L2005.62,1088.96L2124.26,1020.66L2112.55,1013.78Z" style="fill:rgb(191,233,184);stroke:black;stroke-width:1px;stroke-linecap:butt;"/>
        <g>
            <path d="M2086.23,851.487C2086.23,851.487 2082.78,849.393 2082.74,849.407C2082.7,849.422 2065.2,876.732 2065.2,876.732L2064.88,884.525L2086.23,851.487Z" style="fill:rgb(191,233,184);stroke:black;stroke-width:1px;stroke-linecap:butt;"/>
            <path d="M2100.08,809.955L2099.79,822.212L2103.57,824.42L2104.34,803.672L2100.08,809.955Z" style="fill:rgb(78,141,67);stroke:black;stroke-width:1px;stroke-linecap:butt;"/>
            <path d="M2093.38,839.698L2089.36,837.666L2099.7,822.197L2103.53,824.256L2093.38,839.698Z" style="fill:rgb(191,233,184);stroke:black;stroke-width:1px;stroke-linecap:butt;"/>
            <path d="M2104.34,846.061L2100.39,843.699L2100.45,859.102L2104.28,861.064" style="fill:rgb(78,141,67);stroke:black;stroke-width:1px;stroke-linecap:butt;"/>
            <g transform="matrix(0.622165,0,0,0.598454,946.581,262.182)">
                <path d="M1797.06,938.436L1797.25,966.388L1817.25,976.879L1797.99,1009.82L1797.61,1040.85L1831.94,984.893L1861.18,1001.19L1861.08,975.148L1843.59,965.582L1859.62,939.257C1859.62,939.257 1861.01,904.897 1860.84,904.444C1860.68,903.991 1829.43,956.786 1829.43,956.786L1797.06,938.436Z" style="fill:none;stroke:black;stroke-width:1.64px;stroke-linecap:butt;"/>
            </g>
        </g>
        <g transform="matrix(1,0,0,1,-250.127,345.194)">
            <path d="M2086.23,851.487C2086.23,851.487 2082.78,849.393 2082.74,849.407C2082.7,849.422 2065.2,876.732 2065.2,876.732L2064.88,884.525L2086.23,851.487Z" style="fill:rgb(191,233,184);stroke:black;stroke-width:1px;stroke-linecap:butt;"/>
            <path d="M2100.08,809.955L2099.79,822.212L2103.57,824.42L2104.34,803.672L2100.08,809.955Z" style="fill:rgb(78,141,67);stroke:black;stroke-width:1px;stroke-linecap:butt;"/>
            <path d="M2093.38,839.698L2089.36,837.666L2099.7,822.197L2103.53,824.256L2093.38,839.698Z" style="fill:rgb(191,233,184);stroke:black;stroke-width:1px;stroke-linecap:butt;"/>
            <path d="M2104.34,846.061L2100.39,843.699L2100.45,859.102L2104.28,861.064" style="fill:rgb(78,141,67);stroke:black;stroke-width:1px;stroke-linecap:butt;"/>
            <g transform="matrix(0.622165,0,0,0.598454,946.581,262.182)">
                <path d="M1797.06,938.436L1797.25,966.388L1817.25,976.879L1797.99,1009.82L1797.61,1040.85L1831.94,984.893L1861.18,1001.19L1861.08,975.148L1843.59,965.582L1859.62,939.257C1859.62,939.257 1861.01,904.897 1860.84,904.444C1860.68,903.991 1829.43,956.786 1829.43,956.786L1797.06,938.436Z" style="fill:none;stroke:black;stroke-width:1.64px;stroke-linecap:butt;"/>
            </g>
        </g>
        <path d="M2139.18,776.126L2116.63,789.601L2116.44,795.97L2144.56,779.041L2139.18,776.126Z" style="fill:rgb(191,233,184);stroke:black;stroke-width:1px;stroke-linecap:butt;"/>
        <path d="M2095.5,610.384L2092.02,608.269L2083.12,613.097L2083.03,617.127L2095.5,610.384Z" style="fill:rgb(191,233,184);stroke:black;stroke-width:1px;stroke-linecap:butt;"/>
        <g transform="matrix(1,0,0,1,29.6134,59.4636)">
            <path d="M2095.5,610.384L2092.02,608.269L2083.12,613.097L2083.03,617.127L2095.5,610.384Z" style="fill:rgb(191,233,184);stroke:black;stroke-width:1px;stroke-linecap:butt;"/>
        </g>
        <g transform="matrix(1,0,0,1,-124.168,259.097)">
            <path d="M2095.5,610.384L2092.02,608.269L2083.12,613.097L2083.03,617.127L2095.5,610.384Z" style="fill:rgb(191,233,184);stroke:black;stroke-width:1px;stroke-linecap:butt;"/>
        </g>
        <g transform="matrix(1,0,0,1,-121.128,315.185)">
            <path d="M2095.5,610.384L2092.02,608.269L2083.12,613.097L2083.03,617.127L2095.5,610.384Z" style="fill:rgb(191,233,184);stroke:black;stroke-width:1px;stroke-linecap:butt;"/>
        </g>
        <path d="M2095.49,610.637L2091.92,608.279L2092.04,597.915L2095.82,596.002L2095.49,610.637Z" style="fill:rgb(78,141,67);stroke:black;stroke-width:1px;stroke-linecap:butt;"/>
        <g transform="matrix(1,0,0,1,29.6134,59.4636)">
            <path d="M2095.49,610.637L2091.92,608.279L2092.04,597.915L2095.82,596.002L2095.49,610.637Z" style="fill:rgb(78,141,67);stroke:black;stroke-width:1px;stroke-linecap:butt;"/>
        </g>
        <g transform="matrix(1,0,0,1,-124.168,259.097)">
            <path d="M2095.49,610.637L2091.92,608.279L2092.04,597.915L2095.82,596.002L2095.49,610.637Z" style="fill:rgb(78,141,67);stroke:black;stroke-width:1px;stroke-linecap:butt;"/>
        </g>
        <g transform="matrix(1,0,0,1,-121.128,315.185)">
            <path d="M2095.49,610.637L2091.92,608.279L2092.04,597.915L2095.82,596.002L2095.49,610.637Z" style="fill:rgb(78,141,67);stroke:black;stroke-width:1px;stroke-linecap:butt;"/>
        </g>
        <g>
            <path d="M1993.54,702.112C1993.54,702.112 1931.01,737.876 1931.08,737.855C1931.28,737.793 1931.04,742.83 1931.04,742.83L1998.23,704.514L1993.54,702.112Z" style="fill:rgb(191,233,184);stroke:black;stroke-width:1px;stroke-linecap:butt;"/>
            <path d="M1931.64,720.346C1931.64,720.346 1999.12,681.058 1999.36,680.687C1999.61,680.317 1998.4,704.408 1998.4,704.408L1930.89,743.038L1931.64,720.346Z" style="fill:none;stroke:black;stroke-width:1px;stroke-linecap:butt;"/>
            <path d="M1998.17,704.51L1993.66,702.115L1994.19,683.879L1999.16,681.032L1998.17,704.51Z" style="fill:rgb(78,141,67);stroke:black;stroke-width:1px;stroke-linecap:butt;"/>
        </g>
        <g transform="matrix(1,0,0,1,-134.304,431.721)">
            <path d="M1993.54,702.112C1993.54,702.112 1931.19,738.699 1931.19,738.77C1931.22,741.234 1930.71,743.919 1930.71,743.919L1998.23,704.514L1993.54,702.112Z" style="fill:rgb(191,233,184);stroke:black;stroke-width:1px;stroke-linecap:butt;"/>
        </g>
        <g transform="matrix(1,0,0,1,-134.304,431.721)">
            <path d="M1931.16,732.383C1931.16,732.383 1998.44,693.359 1998.69,692.989C1998.93,692.619 1998.4,704.408 1998.4,704.408L1931.15,743.741L1931.16,732.383Z" style="fill:none;stroke:black;stroke-width:1px;stroke-linecap:butt;"/>
        </g>
        <g transform="matrix(1,0,0,1,-134.304,431.721)">
            <path d="M1998.41,704.426L1993.9,701.992L1993.7,695.943L1998.64,693.217L1998.41,704.426Z" style="fill:rgb(78,141,67);stroke:black;stroke-width:1px;stroke-linecap:butt;"/>
        </g>
        <g transform="matrix(1,0,0,1,0.176723,182.386)">
            <path d="M1993.54,702.112C1993.54,702.112 1931.01,737.876 1931.08,737.855C1931.28,737.793 1931.04,742.83 1931.04,742.83L1998.23,704.514L1993.54,702.112Z" style="fill:rgb(191,233,184);stroke:black;stroke-width:1px;stroke-linecap:butt;"/>
        </g>
        <path d="M1819.38,806.718L1814.59,803.535L1788.31,818.314L1788.45,824.575L1819.38,806.718Z" style="fill:rgb(191,233,184);stroke:black;stroke-width:1px;stroke-linecap:butt;"/>
        <path d="M1839.64,834.5L1819.74,846.052L1819.67,839.793L1834.58,831.25L1839.64,834.5Z" style="fill:rgb(191,233,184);stroke:black;stroke-width:1px;stroke-linecap:butt;"/>
        <path d="M1833.54,791.912L1861.35,776.502L1866.51,779.222L1839.75,794.953L1833.54,791.912Z" style="fill:rgb(191,233,184);stroke:black;stroke-width:1px;stroke-linecap:butt;"/>
        <path d="M1839.78,834.426L1834.58,831.253L1833.75,791.841L1839.34,795.014L1839.78,834.426Z" style="fill:rgb(78,141,67);stroke:black;stroke-width:1px;stroke-linecap:butt;"/>
        <path d="M1866.64,779.037L1861.43,776.478L1861.3,760.672L1866.45,757.579L1866.64,779.037Z" style="fill:rgb(78,141,67);stroke:black;stroke-width:1px;stroke-linecap:butt;"/>
        <g transform="matrix(1,0,0,1,4.55239,-8.66151)">
            <path d="M2067.66,684.959L2128.24,582.173L2127.41,609.016L2067.3,709.383L2067.66,684.959Z" style="fill:none;stroke:black;stroke-width:1px;stroke-linecap:butt;"/>
        </g>
        <g transform="matrix(0.866025,-0.5,1,0.57735,0,0)">
            <path d="M113.497,1463.26L114.281,1463.79L113.889,1464.29L114.523,1464.49L114.224,1465.34L113.59,1465.15L113.59,1465.77L112.621,1465.77L112.621,1465.15L111.988,1465.34L111.688,1464.49L112.322,1464.29L111.93,1463.79L112.714,1463.26L113.106,1463.77L113.497,1463.26Z" style="fill:rgb(191,233,184);stroke:black;stroke-width:0.76px;stroke-linecap:butt;"/>
        </g>
        <g transform="matrix(1,0,0,1,0,182.188)">
            <path d="M1931.64,720.346C1931.64,720.346 1999.12,681.058 1999.36,680.687C1999.61,680.317 1998.4,704.408 1998.4,704.408L1930.89,743.038L1931.64,720.346Z" style="fill:none;stroke:black;stroke-width:1px;stroke-linecap:butt;"/>
        </g>
        <g transform="matrix(1,0,0,1,636.767,-41.8879)">
            <path d="M1120.88,745.59L1120.56,597.104L1509.38,372.64L1507.81,522.643L1120.88,745.59Z" style="fill:none;stroke:black;stroke-width:1px;"/>
        </g>
        <g>
            <g transform="matrix(1,0,0,1,649.051,154.568)">
                <path d="M1120.88,745.59L1120.56,597.104L1235.48,530.777L1233.11,680.356C1216.98,686.315 1183.95,704.814 1120.88,745.59Z" style="fill:none;stroke:black;stroke-width:1px;"/>
            </g>
            <path d="M1762.3,747.454L1762.46,895.841L1769.93,900.158L1769.61,751.673L1762.3,747.454Z" style="fill:rgb(78,141,67);stroke:black;stroke-width:1px;stroke-linecap:butt;"/>
            <path d="M1769.61,751.673L1762.46,747.362L1875.79,682.596L1884.51,685.332L1769.61,751.673Z" style="fill:rgb(191,233,184);stroke:black;stroke-width:1px;stroke-linecap:butt;"/>
        </g>
        <g transform="matrix(1,0,0,1,1.82121,180.601)">
            <g transform="matrix(1,0,0,1,649.051,154.568)">
                <path d="M1120.88,745.59L1120.56,597.104L1235.48,530.777L1233.11,680.356C1216.98,686.315 1183.95,704.814 1120.88,745.59Z" style="fill:none;stroke:black;stroke-width:1px;"/>
            </g>
            <path d="M1762.3,747.454L1762.46,895.841L1769.93,900.158L1769.61,751.673L1762.3,747.454Z" style="fill:rgb(78,141,67);stroke:black;stroke-width:1px;stroke-linecap:butt;"/>
            <path d="M1769.61,751.673L1762.46,747.362L1875.79,682.596L1884.51,685.332L1769.61,751.673Z" style="fill:rgb(191,233,184);stroke:black;stroke-width:1px;stroke-linecap:butt;"/>
        </g>
        <g transform="matrix(1,0,0,1,3.64242,361.202)">
            <g transform="matrix(1,0,0,1,649.051,154.568)">
                <path d="M1120.88,745.59L1120.56,597.104L1235.48,530.777L1233.11,680.356C1216.98,686.315 1183.95,704.814 1120.88,745.59Z" style="fill:none;stroke:black;stroke-width:1px;"/>
            </g>
            <path d="M1762.3,747.454L1762.46,895.841L1769.93,900.158L1769.61,751.673L1762.3,747.454Z" style="fill:rgb(78,141,67);stroke:black;stroke-width:1px;stroke-linecap:butt;"/>
            <path d="M1769.61,751.673L1762.46,747.362L1875.79,682.596L1884.51,685.332L1769.61,751.673Z" style="fill:rgb(191,233,184);stroke:black;stroke-width:1px;stroke-linecap:butt;"/>
        </g>
        <g transform="matrix(1,0,0,1,138.447,-79.9327)">
            <g transform="matrix(1,0,0,1,649.051,154.568)">
                <path d="M1120.88,745.59L1120.56,597.104L1235.48,530.777L1233.11,680.356C1216.98,686.315 1183.95,704.814 1120.88,745.59Z" style="fill:none;stroke:black;stroke-width:1px;"/>
            </g>
            <path d="M1762.3,747.454L1762.46,895.841L1769.93,900.158L1769.61,751.673L1762.3,747.454Z" style="fill:rgb(78,141,67);stroke:black;stroke-width:1px;stroke-linecap:butt;"/>
            <path d="M1769.61,751.673L1762.46,747.362L1875.79,682.596L1884.51,685.332L1769.61,751.673Z" style="fill:rgb(191,233,184);stroke:black;stroke-width:1px;stroke-linecap:butt;"/>
        </g>
        <g transform="matrix(1,0,0,1,140.269,100.668)">
            <g transform="matrix(1,0,0,1,649.051,154.568)">
                <path d="M1120.88,745.59L1120.56,597.104L1235.48,530.777L1233.11,680.356C1216.98,686.315 1183.95,704.814 1120.88,745.59Z" style="fill:none;stroke:black;stroke-width:1px;"/>
            </g>
            <path d="M1762.3,747.454L1762.46,895.841L1769.93,900.158L1769.61,751.673L1762.3,747.454Z" style="fill:rgb(78,141,67);stroke:black;stroke-width:1px;stroke-linecap:butt;"/>
            <path d="M1769.61,751.673L1762.46,747.362L1875.79,682.596L1884.51,685.332L1769.61,751.673Z" style="fill:rgb(191,233,184);stroke:black;stroke-width:1px;stroke-linecap:butt;"/>
        </g>
        <g transform="matrix(1,0,0,1,273.253,-157.762)">
            <g transform="matrix(1,0,0,1,649.051,154.568)">
                <path d="M1120.88,745.59L1120.56,597.104L1235.48,530.777L1233.11,680.356C1216.98,686.315 1183.95,704.814 1120.88,745.59Z" style="fill:none;stroke:black;stroke-width:1px;"/>
            </g>
            <path d="M1762.3,747.454L1762.46,895.841L1769.93,900.158L1769.61,751.673L1762.3,747.454Z" style="fill:rgb(78,141,67);stroke:black;stroke-width:1px;stroke-linecap:butt;"/>
            <path d="M1769.61,751.673L1762.46,747.362L1875.79,682.596L1884.51,685.332L1769.61,751.673Z" style="fill:rgb(191,233,184);stroke:black;stroke-width:1px;stroke-linecap:butt;"/>
        </g>
        <g transform="matrix(1,0,0,1,275.074,22.8385)">
            <g transform="matrix(1,0,0,1,649.051,154.568)">
                <path d="M1120.88,745.59L1120.56,597.104L1235.48,530.777L1233.11,680.356C1216.98,686.315 1183.95,704.814 1120.88,745.59Z" style="fill:none;stroke:black;stroke-width:1px;"/>
            </g>
            <path d="M1762.3,747.454L1762.46,895.841L1769.93,900.158L1769.61,751.673L1762.3,747.454Z" style="fill:rgb(78,141,67);stroke:black;stroke-width:1px;stroke-linecap:butt;"/>
            <path d="M1769.61,751.673L1762.46,747.362L1875.79,682.596L1884.51,685.332L1769.61,751.673Z" style="fill:rgb(191,233,184);stroke:black;stroke-width:1px;stroke-linecap:butt;"/>
        </g>
        <g transform="matrix(1,0,0,1,925.946,358.008)">
            <path d="M984.258,828.69L984.258,680.394L1235.48,530.777L1233.11,680.356C1216.98,686.315 1047.33,787.914 984.258,828.69Z" style="fill:none;stroke:black;stroke-width:1px;"/>
        </g>
        <g transform="matrix(1,0,0,1,140.269,286.539)">
            <path d="M1762.3,747.454L1762.46,895.841L1769.93,900.158L1769.61,751.673L1762.3,747.454Z" style="fill:rgb(78,141,67);stroke:black;stroke-width:1px;stroke-linecap:butt;"/>
        </g>
        <g transform="matrix(1,0,0,1,276.895,203.44)">
            <path d="M1632.98,834.772L1625.67,830.554L1875.79,682.596L1884.51,685.332L1632.98,834.772Z" style="fill:rgb(191,233,184);stroke:black;stroke-width:1px;stroke-linecap:butt;"/>
        </g>
        <g transform="matrix(1,0,0,1,639.428,140.586)">
            <path d="M1076.95,1195.78L1076.95,382.967L989.808,337.21L989.882,1145.96L1076.95,1195.78Z" style="fill:rgb(78,141,67);stroke:black;stroke-width:1px;"/>
        </g>
        <g transform="matrix(1,0,0,1,204.971,-133.116)">
            <g transform="matrix(0.343314,0,0,0.360954,1100.82,139.014)">
                <circle cx="2052.44" cy="1309.89" r="6.641" style="fill:rgb(148,31,20);stroke:black;stroke-width:2.84px;stroke-linecap:butt;"/>
            </g>
            <g transform="matrix(0.343314,0,0,0.360954,1098.52,137.608)">
                <path d="M2048.06,1314.89L2055.76,1319.48C2055.76,1319.48 2053.6,1317.46 2053.04,1316.51C2052.57,1315.68 2052.48,1314.56 2052.44,1313.73C2052.4,1312.99 2052.55,1312.23 2052.81,1311.53C2053.09,1310.79 2053.62,1309.91 2054.12,1309.31C2054.58,1308.76 2055.16,1308.28 2055.8,1307.96C2056.52,1307.59 2057.57,1307.24 2058.46,1307.12C2059.34,1307 2061.12,1307.24 2061.12,1307.24L2062.39,1307.97C2062.39,1307.97 2057.64,1305.06 2055.78,1304.15C2054.74,1303.65 2053.39,1303.35 2052.44,1303.25C2051.65,1303.18 2050.76,1303.37 2050.08,1303.59C2049.45,1303.79 2048.85,1304.15 2048.35,1304.59C2047.79,1305.08 2047.33,1305.64 2046.9,1306.23C2046.55,1306.71 2046.15,1307.68 2046.01,1308.23C2045.86,1308.79 2045.75,1309.34 2045.8,1309.89C2045.86,1310.62 2045.98,1311.74 2046.36,1312.57C2046.74,1313.4 2048.06,1314.89 2048.06,1314.89Z" style="fill:rgb(230,106,81);stroke:black;stroke-width:2.84px;stroke-linecap:butt;"/>
            </g>
        </g>
        <g transform="matrix(1,0,0,1,8.68368,6.26906)">
            <g transform="matrix(0.343314,0,0,0.360954,1118.34,118.268)">
                <circle cx="2052.44" cy="1309.89" r="6.641" style="fill:rgb(148,31,20);stroke:black;stroke-width:2.84px;stroke-linecap:butt;"/>
            </g>
            <g transform="matrix(0.343314,0,0,0.360954,1116.06,116.885)">
                <path d="M2048.06,1314.89L2055.76,1319.48C2055.76,1319.48 2053.6,1317.46 2053.04,1316.51C2052.57,1315.68 2052.48,1314.56 2052.44,1313.73C2052.4,1312.99 2052.55,1312.23 2052.81,1311.53C2053.09,1310.79 2053.62,1309.91 2054.12,1309.31C2054.58,1308.76 2055.16,1308.28 2055.8,1307.96C2056.52,1307.59 2057.57,1307.24 2058.46,1307.12C2059.34,1307 2061.12,1307.24 2061.12,1307.24L2062.39,1307.97C2062.39,1307.97 2057.64,1305.06 2055.78,1304.15C2054.74,1303.65 2053.39,1303.35 2052.44,1303.25C2051.65,1303.18 2050.76,1303.37 2050.08,1303.59C2049.45,1303.79 2048.85,1304.15 2048.35,1304.59C2047.79,1305.08 2047.33,1305.64 2046.9,1306.23C2046.55,1306.71 2046.15,1307.68 2046.01,1308.23C2045.86,1308.79 2045.75,1309.34 2045.8,1309.89C2045.86,1310.62 2045.98,1311.74 2046.36,1312.57C2046.74,1313.4 2048.06,1314.89 2048.06,1314.89Z" style="fill:rgb(230,106,81);stroke:black;stroke-width:2.84px;stroke-linecap:butt;"/>
            </g>
        </g>
        <g transform="matrix(0.343314,0,0,0.360954,1204.19,107.657)">
            <path d="M1688.7,1486.85L2571.24,815.495L2570.43,833.339L1694.28,1500.14L1688.7,1503.99" style="fill:rgb(148,31,20);stroke:black;stroke-width:2.84px;stroke-linecap:butt;"/>
        </g>
        <g transform="matrix(0.343314,0,0,0.360954,1204.19,107.657)">
            <path d="M2571.33,815.566C2571.33,815.566 2564.51,812.145 2562.73,811.39C2562.27,811.194 1688.32,1469.48 1688.32,1469.48L1689.26,1486.01L2571.33,815.566Z" style="fill:rgb(230,106,81);stroke:black;stroke-width:2.84px;stroke-linecap:butt;"/>
        </g>
        <g transform="matrix(0.343314,0,0,0.360954,1091.39,144.623)">
            <circle cx="2052.44" cy="1309.89" r="6.641" style="fill:rgb(150,216,228);stroke:black;stroke-width:2.84px;stroke-linecap:butt;"/>
        </g>
        <g transform="matrix(1,0,0,1,67.3221,-39.2469)">
            <g transform="matrix(0.343314,0,0,0.360954,1121.33,137.693)">
                <circle cx="2052.44" cy="1309.89" r="6.641" style="fill:rgb(148,31,20);stroke:black;stroke-width:2.84px;stroke-linecap:butt;"/>
            </g>
            <g transform="matrix(0.343314,0,0,0.360954,1119.05,136.309)">
                <path d="M2048.06,1314.89L2055.76,1319.48C2055.76,1319.48 2053.6,1317.46 2053.04,1316.51C2052.57,1315.68 2052.48,1314.56 2052.44,1313.73C2052.4,1312.99 2052.55,1312.23 2052.81,1311.53C2053.09,1310.79 2053.62,1309.91 2054.12,1309.31C2054.58,1308.76 2055.16,1308.28 2055.8,1307.96C2056.52,1307.59 2057.57,1307.24 2058.46,1307.12C2059.34,1307 2061.12,1307.24 2061.12,1307.24L2062.39,1307.97C2062.39,1307.97 2057.64,1305.06 2055.78,1304.15C2054.74,1303.65 2053.39,1303.35 2052.44,1303.25C2051.65,1303.18 2050.76,1303.37 2050.08,1303.59C2049.45,1303.79 2048.85,1304.15 2048.35,1304.59C2047.79,1305.08 2047.33,1305.64 2046.9,1306.23C2046.55,1306.71 2046.15,1307.68 2046.01,1308.23C2045.86,1308.79 2045.75,1309.34 2045.8,1309.89C2045.86,1310.62 2045.98,1311.74 2046.36,1312.57C2046.74,1313.4 2048.06,1314.89 2048.06,1314.89Z" style="fill:rgb(230,106,81);stroke:black;stroke-width:2.84px;stroke-linecap:butt;"/>
            </g>
        </g>
        <g transform="matrix(1,0,0,1,135.358,-66.1831)">
            <g transform="matrix(0.343314,0,0,0.360954,1107.81,96.0135)">
                <circle cx="2052.44" cy="1309.89" r="6.641" style="fill:rgb(148,31,20);stroke:black;stroke-width:2.84px;stroke-linecap:butt;"/>
            </g>
            <g transform="matrix(0.343314,0,0,0.360954,1105.53,94.6296)">
                <path d="M2048.06,1314.89L2055.76,1319.48C2055.76,1319.48 2053.6,1317.46 2053.04,1316.51C2052.57,1315.68 2052.48,1314.56 2052.44,1313.73C2052.4,1312.99 2052.55,1312.23 2052.81,1311.53C2053.09,1310.79 2053.62,1309.91 2054.12,1309.31C2054.58,1308.76 2055.16,1308.28 2055.8,1307.96C2056.52,1307.59 2057.57,1307.24 2058.46,1307.12C2059.34,1307 2061.12,1307.24 2061.12,1307.24L2062.39,1307.97C2062.39,1307.97 2057.64,1305.06 2055.78,1304.15C2054.74,1303.65 2053.39,1303.35 2052.44,1303.25C2051.65,1303.18 2050.76,1303.37 2050.08,1303.59C2049.45,1303.79 2048.85,1304.15 2048.35,1304.59C2047.79,1305.08 2047.33,1305.64 2046.9,1306.23C2046.55,1306.71 2046.15,1307.68 2046.01,1308.23C2045.86,1308.79 2045.75,1309.34 2045.8,1309.89C2045.86,1310.62 2045.98,1311.74 2046.36,1312.57C2046.74,1313.4 2048.06,1314.89 2048.06,1314.89Z" style="fill:rgb(230,106,81);stroke:black;stroke-width:2.84px;stroke-linecap:butt;"/>
            </g>
        </g>
        <g transform="matrix(1,0,0,1,22.6464,-6.44799)">
            <g transform="matrix(0.343314,0,0,0.360954,1133.44,106.012)">
                <circle cx="2052.44" cy="1309.89" r="6.641" style="fill:rgb(148,31,20);stroke:black;stroke-width:2.84px;stroke-linecap:butt;"/>
            </g>
            <g transform="matrix(0.343314,0,0,0.360954,1131.16,104.628)">
                <path d="M2048.06,1314.89L2055.76,1319.48C2055.76,1319.48 2053.6,1317.46 2053.04,1316.51C2052.57,1315.68 2052.48,1314.56 2052.44,1313.73C2052.4,1312.99 2052.55,1312.23 2052.81,1311.53C2053.09,1310.79 2053.62,1309.91 2054.12,1309.31C2054.58,1308.76 2055.16,1308.28 2055.8,1307.96C2056.52,1307.59 2057.57,1307.24 2058.46,1307.12C2059.34,1307 2061.12,1307.24 2061.12,1307.24L2062.39,1307.97C2062.39,1307.97 2057.64,1305.06 2055.78,1304.15C2054.74,1303.65 2053.39,1303.35 2052.44,1303.25C2051.65,1303.18 2050.76,1303.37 2050.08,1303.59C2049.45,1303.79 2048.85,1304.15 2048.35,1304.59C2047.79,1305.08 2047.33,1305.64 2046.9,1306.23C2046.55,1306.71 2046.15,1307.68 2046.01,1308.23C2045.86,1308.79 2045.75,1309.34 2045.8,1309.89C2045.86,1310.62 2045.98,1311.74 2046.36,1312.57C2046.74,1313.4 2048.06,1314.89 2048.06,1314.89Z" style="fill:rgb(230,106,81);stroke:black;stroke-width:2.84px;stroke-linecap:butt;"/>
            </g>
        </g>
        <g transform="matrix(1,0,0,1,202.74,-145.535)">
            <g transform="matrix(0.343314,0,0,0.360954,1141.86,89.9949)">
                <circle cx="2052.44" cy="1309.89" r="6.641" style="fill:rgb(148,31,20);stroke:black;stroke-width:2.84px;stroke-linecap:butt;"/>
            </g>
            <g transform="matrix(0.343314,0,0,0.360954,1139.58,88.611)">
                <path d="M2048.06,1314.89L2055.76,1319.48C2055.76,1319.48 2053.6,1317.46 2053.04,1316.51C2052.57,1315.68 2052.48,1314.56 2052.44,1313.73C2052.4,1312.99 2052.55,1312.23 2052.81,1311.53C2053.09,1310.79 2053.62,1309.91 2054.12,1309.31C2054.58,1308.76 2055.16,1308.28 2055.8,1307.96C2056.52,1307.59 2057.57,1307.24 2058.46,1307.12C2059.34,1307 2061.12,1307.24 2061.12,1307.24L2062.39,1307.97C2062.39,1307.97 2057.64,1305.06 2055.78,1304.15C2054.74,1303.65 2053.39,1303.35 2052.44,1303.25C2051.65,1303.18 2050.76,1303.37 2050.08,1303.59C2049.45,1303.79 2048.85,1304.15 2048.35,1304.59C2047.79,1305.08 2047.33,1305.64 2046.9,1306.23C2046.55,1306.71 2046.15,1307.68 2046.01,1308.23C2045.86,1308.79 2045.75,1309.34 2045.8,1309.89C2045.86,1310.62 2045.98,1311.74 2046.36,1312.57C2046.74,1313.4 2048.06,1314.89 2048.06,1314.89Z" style="fill:rgb(230,106,81);stroke:black;stroke-width:2.84px;stroke-linecap:butt;"/>
            </g>
        </g>
        <g transform="matrix(1,0,0,1,89.1422,-5.42003)">
            <g transform="matrix(0.343314,0,0,0.360954,1130.47,83.0824)">
                <circle cx="2052.44" cy="1309.89" r="6.641" style="fill:rgb(148,31,20);stroke:black;stroke-width:2.84px;stroke-linecap:butt;"/>
            </g>
            <g transform="matrix(0.343314,0,0,0.360954,1128.19,81.6985)">
                <path d="M2048.06,1314.89L2055.76,1319.48C2055.76,1319.48 2053.6,1317.46 2053.04,1316.51C2052.57,1315.68 2052.48,1314.56 2052.44,1313.73C2052.4,1312.99 2052.55,1312.23 2052.81,1311.53C2053.09,1310.79 2053.62,1309.91 2054.12,1309.31C2054.58,1308.76 2055.16,1308.28 2055.8,1307.96C2056.52,1307.59 2057.57,1307.24 2058.46,1307.12C2059.34,1307 2061.12,1307.24 2061.12,1307.24L2062.39,1307.97C2062.39,1307.97 2057.64,1305.06 2055.78,1304.15C2054.74,1303.65 2053.39,1303.35 2052.44,1303.25C2051.65,1303.18 2050.76,1303.37 2050.08,1303.59C2049.45,1303.79 2048.85,1304.15 2048.35,1304.59C2047.79,1305.08 2047.33,1305.64 2046.9,1306.23C2046.55,1306.71 2046.15,1307.68 2046.01,1308.23C2045.86,1308.79 2045.75,1309.34 2045.8,1309.89C2045.86,1310.62 2045.98,1311.74 2046.36,1312.57C2046.74,1313.4 2048.06,1314.89 2048.06,1314.89Z" style="fill:rgb(230,106,81);stroke:black;stroke-width:2.84px;stroke-linecap:butt;"/>
            </g>
        </g>
        <g>
            <g transform="matrix(0.343314,0,0,0.360954,1093.67,146.007)">
                <circle cx="2052.44" cy="1309.89" r="6.641" style="fill:rgb(148,31,20);stroke:black;stroke-width:2.84px;stroke-linecap:butt;"/>
            </g>
            <g transform="matrix(0.343314,0,0,0.360954,1091.39,144.623)">
                <path d="M2048.06,1314.89L2055.76,1319.48C2055.76,1319.48 2053.6,1317.46 2053.04,1316.51C2052.57,1315.68 2052.48,1314.56 2052.44,1313.73C2052.4,1312.99 2052.55,1312.23 2052.81,1311.53C2053.09,1310.79 2053.62,1309.91 2054.12,1309.31C2054.58,1308.76 2055.16,1308.28 2055.8,1307.96C2056.52,1307.59 2057.57,1307.24 2058.46,1307.12C2059.34,1307 2061.12,1307.24 2061.12,1307.24L2062.39,1307.97C2062.39,1307.97 2057.64,1305.06 2055.78,1304.15C2054.74,1303.65 2053.39,1303.35 2052.44,1303.25C2051.65,1303.18 2050.76,1303.37 2050.08,1303.59C2049.45,1303.79 2048.85,1304.15 2048.35,1304.59C2047.79,1305.08 2047.33,1305.64 2046.9,1306.23C2046.55,1306.71 2046.15,1307.68 2046.01,1308.23C2045.86,1308.79 2045.75,1309.34 2045.8,1309.89C2045.86,1310.62 2045.98,1311.74 2046.36,1312.57C2046.74,1313.4 2048.06,1314.89 2048.06,1314.89Z" style="fill:rgb(230,106,81);stroke:black;stroke-width:2.84px;stroke-linecap:butt;"/>
            </g>
        </g>
        <g transform="matrix(0.343314,0,0,0.360954,1204.17,108.04)">
            <path d="M1688.55,1501.92L2628.38,978.041L2626.66,991.462L1677.56,1518.99L1677.83,1276.5L1687.82,1270.45L1688.55,1501.92Z" style="fill:rgb(148,31,20);stroke:black;stroke-width:2.84px;stroke-linecap:butt;"/>
        </g>
        <g transform="matrix(0.343314,0,0,0.360954,1204.19,107.657)">
            <path d="M1687.77,1271.51L1677.51,1265.58L1667.44,1271.46L1677.51,1277.43L1687.77,1271.51Z" style="fill:rgb(230,106,81);stroke:black;stroke-width:2.84px;stroke-linecap:butt;"/>
        </g>
        <g transform="matrix(0.343314,0,0,0.360954,1204.19,107.657)">
            <path d="M1667.44,1271.62L1667.44,1514.24L1677.61,1520L1677.79,1277.59L1667.44,1271.62Z" style="fill:rgb(100,25,17);stroke:black;stroke-width:2.84px;stroke-linecap:butt;"/>
        </g>
        <g transform="matrix(0.343314,0,0,0.360954,1204.19,107.657)">
            <path d="M2627.8,979.396L2617.55,974.965L1707.84,1480.96L1695.71,1498.79L2627.8,979.396Z" style="fill:rgb(230,106,81);stroke:black;stroke-width:2.84px;stroke-linecap:butt;"/>
        </g>
        <path d="M2144.24,480.901L2135.55,476.567L2136.57,337.076L2146.15,331.289L2144.24,480.901Z" style="fill:rgb(78,141,67);stroke:black;stroke-width:1px;stroke-linecap:butt;"/>
        <path d="M2135.55,476.567L1757.71,692.815L1757.67,703.545L2144.24,480.901L2135.55,476.567Z" style="fill:rgb(191,233,184);stroke:black;stroke-width:1px;stroke-linecap:butt;"/>
        <path d="M1818.26,746.071L1818.75,783.623L1788.31,801.021L1788.38,824.746L1819.42,806.776L1819.64,846.319L1839.79,834.538L1839.26,795.074L1866.73,778.977L1866.64,757.319L1837.99,773.913L1837.89,734.981L1818.26,746.071Z" style="fill:none;stroke:black;stroke-width:1px;stroke-linecap:butt;"/>
        <g transform="matrix(1,0,0,1,-4.86582,13.0305)">
            <path d="M2118.03,648.257L2130.31,642.045L2130.04,656.903L2117.36,663.713L2118.03,648.257Z" style="fill:none;stroke:black;stroke-width:1px;stroke-linecap:butt;"/>
        </g>
        <g transform="matrix(1,0,0,1,-158.696,212.601)">
            <path d="M2118.03,648.257L2130.31,642.045L2130.04,656.903L2117.36,663.713L2118.03,648.257Z" style="fill:none;stroke:black;stroke-width:1px;stroke-linecap:butt;"/>
        </g>
        <g transform="matrix(1,0,0,1,-155.666,268.759)">
            <path d="M2118.03,648.257L2130.31,642.045L2130.04,656.903L2117.36,663.713L2118.03,648.257Z" style="fill:none;stroke:black;stroke-width:1px;stroke-linecap:butt;"/>
        </g>
        <g transform="matrix(1,0,0,1,-155.666,268.759)">
            <path d="M2118.03,648.257L2130.31,642.045L2130.04,656.903L2117.36,663.713L2118.03,648.257Z" style="fill:none;stroke:black;stroke-width:1px;stroke-linecap:butt;"/>
        </g>
        <g transform="matrix(2.30742,0,0,2.32301,-2769.64,-745.103)">
            <path d="M2118.03,648.257L2130.5,640.92L2129.82,656.158L2117.52,663.465L2118.03,648.257Z" style="fill:none;stroke:black;stroke-width:0.43px;stroke-linecap:butt;"/>
        </g>
        <g transform="matrix(1,0,0,1,-34.4345,-46.3446)">
            <path d="M2118.03,648.257L2130.31,642.045L2130.04,656.903L2117.36,663.713L2118.03,648.257Z" style="fill:none;stroke:black;stroke-width:1px;stroke-linecap:butt;"/>
        </g>
        <path d="M1797.06,938.436L1797.25,966.388L1817.25,976.879L1797.99,1009.82L1798.47,1039.58L1831.94,984.893L1861.18,1001.19L1861.08,975.148L1843.59,965.582L1859.62,939.257C1859.62,939.257 1861.01,904.897 1860.84,904.444C1860.68,903.991 1829.43,956.786 1829.43,956.786L1797.06,938.436Z" style="fill:none;stroke:black;stroke-width:1px;stroke-linecap:butt;"/>
        <path d="M2074.16,957.838L2124.51,928.948L2124.76,1020.49L2005.21,1089.45L2006.63,1123.11L1960.52,1096.94L2000.93,1028.45L2002.15,1056.44L2074.27,1015.96L2074.16,957.838Z" style="fill:none;stroke:black;stroke-width:1px;stroke-linecap:butt;"/>
        <path d="M1838.07,773.797L1833.01,770.817L1832.17,738.404L1837.74,735.285L1838.07,773.797Z" style="fill:rgb(78,141,67);stroke:black;stroke-width:1px;stroke-linecap:butt;"/>
        <g transform="matrix(1,0,0,1,0.176723,182.386)">
            <path d="M1998.17,704.51L1993.66,702.115L1994.19,683.879L1999.16,681.032L1998.17,704.51Z" style="fill:rgb(78,141,67);stroke:black;stroke-width:1px;stroke-linecap:butt;"/>
        </g>
        <path d="M2144.84,779.141C2144.91,779.226 2139.43,775.821 2139.29,776.117C2139.26,776.182 2140.32,747.352 2140.32,747.352L2146.25,744.013L2144.84,779.141Z" style="fill:rgb(78,141,67);stroke:black;stroke-width:1px;stroke-linecap:butt;"/>
        <path d="M2124.96,1020.22L2112.72,1013.33L2111.8,936.438L2124.36,929.147L2124.96,1020.22Z" style="fill:rgb(78,141,67);stroke:black;stroke-width:1px;stroke-linecap:butt;"/>
        <path d="M1843.73,965.494L1838.86,963.243L1854.38,936.566L1859.63,939.368L1843.73,965.494Z" style="fill:rgb(191,233,184);stroke:black;stroke-width:1px;stroke-linecap:butt;"/>
        <path d="M1831.77,984.814L1826.96,981.908L1798.3,1029.38L1798.58,1039.35L1831.77,984.814Z" style="fill:rgb(191,233,184);stroke:black;stroke-width:1px;stroke-linecap:butt;"/>
        <path d="M1824.04,1143.51L1837.02,1136.64L1836.08,1087.61L1822.65,1094.53L1824.04,1143.51Z" style="fill:none;stroke:black;stroke-width:1px;stroke-linecap:butt;"/>
    </g>
</svg>
