<?xml version="1.0" encoding="UTF-8" standalone="no"?>
<!DOCTYPE svg PUBLIC "-//W3C//DTD SVG 1.1//EN" "http://www.w3.org/Graphics/SVG/1.1/DTD/svg11.dtd">
<svg width="100%" height="100%" viewBox="0 0 784 1049" version="1.1" xmlns="http://www.w3.org/2000/svg" xmlns:xlink="http://www.w3.org/1999/xlink" xml:space="preserve" xmlns:serif="http://www.serif.com/" style="fill-rule:evenodd;clip-rule:evenodd;stroke-linecap:round;stroke-linejoin:round;stroke-miterlimit:1.5;">
    <g transform="matrix(1,0,0,1,-332.24,-436.599)">
        <g transform="matrix(1,0,0,1,-528.179,-532.766)">
            <path d="M1077.37,1367.59L1549.69,1095.02L1334.89,969.864L860.919,1244.58L1077.37,1367.59Z" style="fill:rgb(150,216,228);stroke:black;stroke-width:1px;"/>
        </g>
        <g transform="matrix(1,0,0,1,-526.159,164.228)">
            <path d="M1073.76,671.642L1076.95,1320.3L1547.67,1046.55L1543.9,400.205L1073.76,671.642Z" style="fill:rgb(105,186,201);stroke:black;stroke-width:1px;"/>
        </g>
        <g transform="matrix(1,0,0,1,-526.159,164.228)">
            <path d="M1124.3,1240.24L1253.67,1314.93L1253.67,1167.41L1124.58,1093.94L1124.3,1240.24Z" style="fill:rgb(56,142,157);stroke:black;stroke-width:1px;"/>
        </g>
        <g transform="matrix(1,0,0,1,-526.159,164.228)">
            <path d="M1514.98,868.544L1641.54,941.609C1641.54,941.609 1505.79,1020.61 1505.85,1020.6C1505.9,1020.6 1422.1,971.598 1422.1,971.598L1419.89,923.449L1514.98,868.544Z" style="fill:rgb(56,142,157);stroke:black;stroke-width:1px;"/>
        </g>
        <g transform="matrix(1,0,0,1,-525.276,262.758)">
            <path d="M1120.88,745.59L1120.56,597.104L1509.38,372.64L1507.81,522.643L1120.88,745.59Z" style="fill:none;stroke:black;stroke-width:1px;"/>
        </g>
        <g transform="matrix(1,0,0,1,-525.276,462.258)">
            <path d="M1120.88,745.59L1120.56,597.104L1509.38,372.64L1507.81,522.643L1120.88,745.59Z" style="fill:none;stroke:black;stroke-width:1px;"/>
        </g>
        <g transform="matrix(1,0,0,1,-521.509,659.583)">
            <path d="M1510.34,373.189L1119.96,598.57L1510.34,373.189Z" style="fill:none;stroke:black;stroke-width:1px;"/>
        </g>
        <g transform="matrix(1,0,0,1,-526.159,164.228)">
            <path d="M1076.95,1320.3L1074.75,672.211L858.899,547.59L860.13,1195.12L1076.95,1320.3Z" style="fill:rgb(56,142,157);stroke:black;stroke-width:1px;"/>
        </g>
        <g transform="matrix(1,0,0,1,-526.159,164.228)">
            <path d="M1165.32,1116.39L1422.1,971.598L1505.85,1020.6L1254.35,1167.02L1165.32,1116.39Z" style="fill:rgb(150,216,228);stroke:black;stroke-width:1px;"/>
        </g>
        <g transform="matrix(1,0,0,1,-526.159,164.228)">
            <path d="M1422.1,971.598L1165.32,1116.39L1253.67,1165.54L1505.85,1020.6L1422.1,971.598Z" style="fill:none;stroke:black;stroke-width:1px;"/>
        </g>
        <g transform="matrix(0.831547,0,0,0.831547,-622.71,40.0457)">
            <g transform="matrix(1,0,0,1,-291.028,99.966)">
                <circle cx="2052.44" cy="1309.89" r="6.641" style="fill:rgb(148,31,20);stroke:black;stroke-width:1.2px;stroke-linecap:butt;"/>
            </g>
            <g transform="matrix(1,0,0,1,-250.046,29.3975)">
                <circle cx="2052.44" cy="1309.89" r="6.641" style="fill:rgb(148,31,20);stroke:black;stroke-width:1.2px;stroke-linecap:butt;"/>
            </g>
            <g transform="matrix(1,0,0,1,-297.669,96.132)">
                <path d="M2048.06,1314.89L2055.76,1319.48C2055.76,1319.48 2053.6,1317.46 2053.04,1316.51C2052.57,1315.68 2052.48,1314.56 2052.44,1313.73C2052.4,1312.99 2052.55,1312.23 2052.81,1311.53C2053.09,1310.79 2053.62,1309.91 2054.12,1309.31C2054.58,1308.76 2055.16,1308.28 2055.8,1307.96C2056.52,1307.59 2057.57,1307.24 2058.46,1307.12C2059.34,1307 2061.12,1307.24 2061.12,1307.24L2062.39,1307.97C2062.39,1307.97 2057.64,1305.06 2055.78,1304.15C2054.74,1303.65 2053.39,1303.35 2052.44,1303.25C2051.65,1303.18 2050.76,1303.37 2050.08,1303.59C2049.45,1303.79 2048.85,1304.15 2048.35,1304.59C2047.79,1305.08 2047.33,1305.64 2046.9,1306.23C2046.55,1306.71 2046.15,1307.68 2046.01,1308.23C2045.86,1308.79 2045.75,1309.34 2045.8,1309.89C2045.86,1310.62 2045.98,1311.74 2046.36,1312.57C2046.74,1313.4 2048.06,1314.89 2048.06,1314.89Z" style="fill:rgb(230,106,81);stroke:black;stroke-width:1.2px;stroke-linecap:butt;"/>
            </g>
            <g transform="matrix(1,0,0,1,-256.687,25.5635)">
                <path d="M2048.06,1314.89L2055.76,1319.48C2055.76,1319.48 2053.6,1317.46 2053.04,1316.51C2052.57,1315.68 2052.48,1314.56 2052.44,1313.73C2052.4,1312.99 2052.55,1312.23 2052.81,1311.53C2053.09,1310.79 2053.62,1309.91 2054.12,1309.31C2054.58,1308.76 2055.16,1308.28 2055.8,1307.96C2056.52,1307.59 2057.57,1307.24 2058.46,1307.12C2059.34,1307 2061.12,1307.24 2061.12,1307.24L2062.39,1307.97C2062.39,1307.97 2057.64,1305.06 2055.78,1304.15C2054.74,1303.65 2053.39,1303.35 2052.44,1303.25C2051.65,1303.18 2050.76,1303.37 2050.08,1303.59C2049.45,1303.79 2048.85,1304.15 2048.35,1304.59C2047.79,1305.08 2047.33,1305.64 2046.9,1306.23C2046.55,1306.71 2046.15,1307.68 2046.01,1308.23C2045.86,1308.79 2045.75,1309.34 2045.8,1309.89C2045.86,1310.62 2045.98,1311.74 2046.36,1312.57C2046.74,1313.4 2048.06,1314.89 2048.06,1314.89Z" style="fill:rgb(230,106,81);stroke:black;stroke-width:1.2px;stroke-linecap:butt;"/>
            </g>
            <path d="M1688.7,1486.85L1867.13,1215.89L1865.53,1237.31L1694.28,1500.14L1688.7,1503.99" style="fill:rgb(148,31,20);stroke:black;stroke-width:1.2px;stroke-linecap:butt;"/>
            <path d="M1867.13,1215.89C1867.13,1215.89 1856.4,1210.24 1856.55,1209.78C1856.7,1209.32 1688.32,1469.48 1688.32,1469.48L1689.26,1486.01L1867.13,1215.89Z" style="fill:rgb(230,106,81);stroke:black;stroke-width:1.2px;stroke-linecap:butt;"/>
            <g transform="matrix(1,0,0,1,-247.975,79.3773)">
                <circle cx="2052.44" cy="1309.89" r="6.641" style="fill:rgb(150,216,228);stroke:black;stroke-width:1.2px;stroke-linecap:butt;"/>
            </g>
            <g transform="matrix(1,0,0,1,-317.139,31.8152)">
                <circle cx="2052.44" cy="1309.89" r="6.641" style="fill:rgb(150,216,228);stroke:black;stroke-width:1.2px;stroke-linecap:butt;"/>
            </g>
            <g transform="matrix(1,0,0,1,-287.383,-36.0923)">
                <circle cx="2052.44" cy="1309.89" r="6.641" style="fill:rgb(150,216,228);stroke:black;stroke-width:1.2px;stroke-linecap:butt;"/>
            </g>
            <g transform="matrix(1,0,0,1,-212.71,-8.39195)">
                <circle cx="2052.44" cy="1309.89" r="6.641" style="fill:rgb(150,216,228);stroke:black;stroke-width:1.2px;stroke-linecap:butt;"/>
            </g>
            <g transform="matrix(1,0,0,1,-188.185,-52.7665)">
                <circle cx="2052.44" cy="1309.89" r="6.641" style="fill:rgb(150,216,228);stroke:black;stroke-width:1.2px;stroke-linecap:butt;"/>
            </g>
            <g transform="matrix(1,0,0,1,-221.354,-71.917)">
                <circle cx="2052.44" cy="1309.89" r="6.641" style="fill:rgb(150,216,228);stroke:black;stroke-width:1.2px;stroke-linecap:butt;"/>
            </g>
            <g transform="matrix(1,0,0,1,-328.567,102.411)">
                <circle cx="2052.44" cy="1309.89" r="6.641" style="fill:rgb(150,216,228);stroke:black;stroke-width:1.2px;stroke-linecap:butt;"/>
            </g>
            <g transform="matrix(1,0,0,1,-250.048,-23.4081)">
                <circle cx="2052.44" cy="1309.89" r="6.641" style="fill:rgb(150,216,228);stroke:black;stroke-width:1.2px;stroke-linecap:butt;"/>
            </g>
            <g transform="matrix(1,0,0,1,-241.334,83.2112)">
                <circle cx="2052.44" cy="1309.89" r="6.641" style="fill:rgb(148,31,20);stroke:black;stroke-width:1.2px;stroke-linecap:butt;"/>
            </g>
            <g transform="matrix(1,0,0,1,-310.499,35.6492)">
                <circle cx="2052.44" cy="1309.89" r="6.641" style="fill:rgb(148,31,20);stroke:black;stroke-width:1.2px;stroke-linecap:butt;"/>
            </g>
            <g transform="matrix(1,0,0,1,-280.743,-32.2583)">
                <circle cx="2052.44" cy="1309.89" r="6.641" style="fill:rgb(148,31,20);stroke:black;stroke-width:1.2px;stroke-linecap:butt;"/>
            </g>
            <g transform="matrix(1,0,0,1,-206.07,-4.55799)">
                <circle cx="2052.44" cy="1309.89" r="6.641" style="fill:rgb(148,31,20);stroke:black;stroke-width:1.2px;stroke-linecap:butt;"/>
            </g>
            <g transform="matrix(1,0,0,1,-181.544,-48.9326)">
                <circle cx="2052.44" cy="1309.89" r="6.641" style="fill:rgb(148,31,20);stroke:black;stroke-width:1.2px;stroke-linecap:butt;"/>
            </g>
            <g transform="matrix(1,0,0,1,-214.714,-68.083)">
                <circle cx="2052.44" cy="1309.89" r="6.641" style="fill:rgb(148,31,20);stroke:black;stroke-width:1.2px;stroke-linecap:butt;"/>
            </g>
            <g transform="matrix(1,0,0,1,-321.926,106.245)">
                <circle cx="2052.44" cy="1309.89" r="6.641" style="fill:rgb(148,31,20);stroke:black;stroke-width:1.2px;stroke-linecap:butt;"/>
            </g>
            <g transform="matrix(1,0,0,1,-243.407,-19.5742)">
                <circle cx="2052.44" cy="1309.89" r="6.641" style="fill:rgb(148,31,20);stroke:black;stroke-width:1.2px;stroke-linecap:butt;"/>
            </g>
            <g transform="matrix(1,0,0,1,-247.975,79.3773)">
                <path d="M2048.06,1314.89L2055.76,1319.48C2055.76,1319.48 2053.6,1317.46 2053.04,1316.51C2052.57,1315.68 2052.48,1314.56 2052.44,1313.73C2052.4,1312.99 2052.55,1312.23 2052.81,1311.53C2053.09,1310.79 2053.62,1309.91 2054.12,1309.31C2054.58,1308.76 2055.16,1308.28 2055.8,1307.96C2056.52,1307.59 2057.57,1307.24 2058.46,1307.12C2059.34,1307 2061.12,1307.24 2061.12,1307.24L2062.39,1307.97C2062.39,1307.97 2057.64,1305.06 2055.78,1304.15C2054.74,1303.65 2053.39,1303.35 2052.44,1303.25C2051.65,1303.18 2050.76,1303.37 2050.08,1303.59C2049.45,1303.79 2048.85,1304.15 2048.35,1304.59C2047.79,1305.08 2047.33,1305.64 2046.9,1306.23C2046.55,1306.71 2046.15,1307.68 2046.01,1308.23C2045.86,1308.79 2045.75,1309.34 2045.8,1309.89C2045.86,1310.62 2045.98,1311.74 2046.36,1312.57C2046.74,1313.4 2048.06,1314.89 2048.06,1314.89Z" style="fill:rgb(230,106,81);stroke:black;stroke-width:1.2px;stroke-linecap:butt;"/>
            </g>
            <g transform="matrix(1,0,0,1,-317.139,31.8152)">
                <path d="M2048.06,1314.89L2055.76,1319.48C2055.76,1319.48 2053.6,1317.46 2053.04,1316.51C2052.57,1315.68 2052.48,1314.56 2052.44,1313.73C2052.4,1312.99 2052.55,1312.23 2052.81,1311.53C2053.09,1310.79 2053.62,1309.91 2054.12,1309.31C2054.58,1308.76 2055.16,1308.28 2055.8,1307.96C2056.52,1307.59 2057.57,1307.24 2058.46,1307.12C2059.34,1307 2061.12,1307.24 2061.12,1307.24L2062.39,1307.97C2062.39,1307.97 2057.64,1305.06 2055.78,1304.15C2054.74,1303.65 2053.39,1303.35 2052.44,1303.25C2051.65,1303.18 2050.76,1303.37 2050.08,1303.59C2049.45,1303.79 2048.85,1304.15 2048.35,1304.59C2047.79,1305.08 2047.33,1305.64 2046.9,1306.23C2046.55,1306.71 2046.15,1307.68 2046.01,1308.23C2045.86,1308.79 2045.75,1309.34 2045.8,1309.89C2045.86,1310.62 2045.98,1311.74 2046.36,1312.57C2046.74,1313.4 2048.06,1314.89 2048.06,1314.89Z" style="fill:rgb(230,106,81);stroke:black;stroke-width:1.2px;stroke-linecap:butt;"/>
            </g>
            <g transform="matrix(1,0,0,1,-287.383,-36.0923)">
                <path d="M2048.06,1314.89L2055.76,1319.48C2055.76,1319.48 2053.6,1317.46 2053.04,1316.51C2052.57,1315.68 2052.48,1314.56 2052.44,1313.73C2052.4,1312.99 2052.55,1312.23 2052.81,1311.53C2053.09,1310.79 2053.62,1309.91 2054.12,1309.31C2054.58,1308.76 2055.16,1308.28 2055.8,1307.96C2056.52,1307.59 2057.57,1307.24 2058.46,1307.12C2059.34,1307 2061.12,1307.24 2061.12,1307.24L2062.39,1307.97C2062.39,1307.97 2057.64,1305.06 2055.78,1304.15C2054.74,1303.65 2053.39,1303.35 2052.44,1303.25C2051.65,1303.18 2050.76,1303.37 2050.08,1303.59C2049.45,1303.79 2048.85,1304.15 2048.35,1304.59C2047.79,1305.08 2047.33,1305.64 2046.9,1306.23C2046.55,1306.71 2046.15,1307.68 2046.01,1308.23C2045.86,1308.79 2045.75,1309.34 2045.8,1309.89C2045.86,1310.62 2045.98,1311.74 2046.36,1312.57C2046.74,1313.4 2048.06,1314.89 2048.06,1314.89Z" style="fill:rgb(230,106,81);stroke:black;stroke-width:1.2px;stroke-linecap:butt;"/>
            </g>
            <g transform="matrix(1,0,0,1,-212.71,-8.39195)">
                <path d="M2048.06,1314.89L2055.76,1319.48C2055.76,1319.48 2053.6,1317.46 2053.04,1316.51C2052.57,1315.68 2052.48,1314.56 2052.44,1313.73C2052.4,1312.99 2052.55,1312.23 2052.81,1311.53C2053.09,1310.79 2053.62,1309.91 2054.12,1309.31C2054.58,1308.76 2055.16,1308.28 2055.8,1307.96C2056.52,1307.59 2057.57,1307.24 2058.46,1307.12C2059.34,1307 2061.12,1307.24 2061.12,1307.24L2062.39,1307.97C2062.39,1307.97 2057.64,1305.06 2055.78,1304.15C2054.74,1303.65 2053.39,1303.35 2052.44,1303.25C2051.65,1303.18 2050.76,1303.37 2050.08,1303.59C2049.45,1303.79 2048.85,1304.15 2048.35,1304.59C2047.79,1305.08 2047.33,1305.64 2046.9,1306.23C2046.55,1306.71 2046.15,1307.68 2046.01,1308.23C2045.86,1308.79 2045.75,1309.34 2045.8,1309.89C2045.86,1310.62 2045.98,1311.74 2046.36,1312.57C2046.74,1313.4 2048.06,1314.89 2048.06,1314.89Z" style="fill:rgb(230,106,81);stroke:black;stroke-width:1.2px;stroke-linecap:butt;"/>
            </g>
            <g transform="matrix(1,0,0,1,-188.185,-52.7665)">
                <path d="M2048.06,1314.89L2055.76,1319.48C2055.76,1319.48 2053.6,1317.46 2053.04,1316.51C2052.57,1315.68 2052.48,1314.56 2052.44,1313.73C2052.4,1312.99 2052.55,1312.23 2052.81,1311.53C2053.09,1310.79 2053.62,1309.91 2054.12,1309.31C2054.58,1308.76 2055.16,1308.28 2055.8,1307.96C2056.52,1307.59 2057.57,1307.24 2058.46,1307.12C2059.34,1307 2061.12,1307.24 2061.12,1307.24L2062.39,1307.97C2062.39,1307.97 2057.64,1305.06 2055.78,1304.15C2054.74,1303.65 2053.39,1303.35 2052.44,1303.25C2051.65,1303.18 2050.76,1303.37 2050.08,1303.59C2049.45,1303.79 2048.85,1304.15 2048.35,1304.59C2047.79,1305.08 2047.33,1305.64 2046.9,1306.23C2046.55,1306.71 2046.15,1307.68 2046.01,1308.23C2045.86,1308.79 2045.75,1309.34 2045.8,1309.89C2045.86,1310.62 2045.98,1311.74 2046.36,1312.57C2046.74,1313.4 2048.06,1314.89 2048.06,1314.89Z" style="fill:rgb(230,106,81);stroke:black;stroke-width:1.2px;stroke-linecap:butt;"/>
            </g>
            <g transform="matrix(1,0,0,1,-221.354,-71.917)">
                <path d="M2048.06,1314.89L2055.76,1319.48C2055.76,1319.48 2053.6,1317.46 2053.04,1316.51C2052.57,1315.68 2052.48,1314.56 2052.44,1313.73C2052.4,1312.99 2052.55,1312.23 2052.81,1311.53C2053.09,1310.79 2053.62,1309.91 2054.12,1309.31C2054.58,1308.76 2055.16,1308.28 2055.8,1307.96C2056.52,1307.59 2057.57,1307.24 2058.46,1307.12C2059.34,1307 2061.12,1307.24 2061.12,1307.24L2062.39,1307.97C2062.39,1307.97 2057.64,1305.06 2055.78,1304.15C2054.74,1303.65 2053.39,1303.35 2052.44,1303.25C2051.65,1303.18 2050.76,1303.37 2050.08,1303.59C2049.45,1303.79 2048.85,1304.15 2048.35,1304.59C2047.79,1305.08 2047.33,1305.64 2046.9,1306.23C2046.55,1306.71 2046.15,1307.68 2046.01,1308.23C2045.86,1308.79 2045.75,1309.34 2045.8,1309.89C2045.86,1310.62 2045.98,1311.74 2046.36,1312.57C2046.74,1313.4 2048.06,1314.89 2048.06,1314.89Z" style="fill:rgb(230,106,81);stroke:black;stroke-width:1.2px;stroke-linecap:butt;"/>
            </g>
            <g transform="matrix(1,0,0,1,-328.567,102.411)">
                <path d="M2048.06,1314.89L2055.76,1319.48C2055.76,1319.48 2053.6,1317.46 2053.04,1316.51C2052.57,1315.68 2052.48,1314.56 2052.44,1313.73C2052.4,1312.99 2052.55,1312.23 2052.81,1311.53C2053.09,1310.79 2053.62,1309.91 2054.12,1309.31C2054.58,1308.76 2055.16,1308.28 2055.8,1307.96C2056.52,1307.59 2057.57,1307.24 2058.46,1307.12C2059.34,1307 2061.12,1307.24 2061.12,1307.24L2062.39,1307.97C2062.39,1307.97 2057.64,1305.06 2055.78,1304.15C2054.74,1303.65 2053.39,1303.35 2052.44,1303.25C2051.65,1303.18 2050.76,1303.37 2050.08,1303.59C2049.45,1303.79 2048.85,1304.15 2048.35,1304.59C2047.79,1305.08 2047.33,1305.64 2046.9,1306.23C2046.55,1306.71 2046.15,1307.68 2046.01,1308.23C2045.86,1308.79 2045.75,1309.34 2045.8,1309.89C2045.86,1310.62 2045.98,1311.74 2046.36,1312.57C2046.74,1313.4 2048.06,1314.89 2048.06,1314.89Z" style="fill:rgb(230,106,81);stroke:black;stroke-width:1.2px;stroke-linecap:butt;"/>
            </g>
            <g transform="matrix(1,0,0,1,-250.048,-23.4081)">
                <path d="M2048.06,1314.89L2055.76,1319.48C2055.76,1319.48 2053.6,1317.46 2053.04,1316.51C2052.57,1315.68 2052.48,1314.56 2052.44,1313.73C2052.4,1312.99 2052.55,1312.23 2052.81,1311.53C2053.09,1310.79 2053.62,1309.91 2054.12,1309.31C2054.58,1308.76 2055.16,1308.28 2055.8,1307.96C2056.52,1307.59 2057.57,1307.24 2058.46,1307.12C2059.34,1307 2061.12,1307.24 2061.12,1307.24L2062.39,1307.97C2062.39,1307.97 2057.64,1305.06 2055.78,1304.15C2054.74,1303.65 2053.39,1303.35 2052.44,1303.25C2051.65,1303.18 2050.76,1303.37 2050.08,1303.59C2049.45,1303.79 2048.85,1304.15 2048.35,1304.59C2047.79,1305.08 2047.33,1305.64 2046.9,1306.23C2046.55,1306.71 2046.15,1307.68 2046.01,1308.23C2045.86,1308.79 2045.75,1309.34 2045.8,1309.89C2045.86,1310.62 2045.98,1311.74 2046.36,1312.57C2046.74,1313.4 2048.06,1314.89 2048.06,1314.89Z" style="fill:rgb(230,106,81);stroke:black;stroke-width:1.2px;stroke-linecap:butt;"/>
            </g>
            <g transform="matrix(1,0,0,1,-0.0425821,1.06107)">
                <path d="M1688.55,1501.92L1927.05,1363.16L1926.78,1375.79L1677.56,1518.99L1677.83,1276.5L1687.82,1270.45L1688.55,1501.92Z" style="fill:rgb(148,31,20);stroke:black;stroke-width:1.2px;stroke-linecap:butt;"/>
            </g>
            <path d="M1687.77,1271.51L1677.51,1265.58L1667.44,1271.46L1677.51,1277.43L1687.77,1271.51Z" style="fill:rgb(230,106,81);stroke:black;stroke-width:1.2px;stroke-linecap:butt;"/>
            <path d="M1667.44,1271.62L1667.44,1514.24L1677.61,1520L1677.79,1277.59L1667.44,1271.62Z" style="fill:rgb(100,25,17);stroke:black;stroke-width:1.2px;stroke-linecap:butt;"/>
            <path d="M1927.01,1364.23L1917.25,1358.59L1707.84,1480.96L1695.71,1498.79L1927.01,1364.23Z" style="fill:rgb(230,106,81);stroke:black;stroke-width:1.2px;stroke-linecap:butt;"/>
        </g>
        <g transform="matrix(1,0,0,1,-526.159,164.228)">
            <path d="M1254.35,1167.02L1641.54,941.609L1638.13,1090.83L1253.67,1314.93L1254.35,1167.02Z" style="fill:rgb(105,186,201);stroke:black;stroke-width:1px;"/>
        </g>
        <g transform="matrix(1,0,0,1,-526.159,164.228)">
            <path d="M1270.18,688.534L1270.18,711.955L1389.45,642.758L1389.09,619.883L1270.18,688.534Z" style="fill:none;stroke:black;stroke-width:1px;"/>
        </g>
        <g transform="matrix(1,0,0,1,-505.638,361.763)">
            <path d="M1270.18,688.534L1270.18,711.955L1389.45,642.758L1389.09,619.883L1270.18,688.534Z" style="fill:none;stroke:black;stroke-width:1px;"/>
        </g>
        <g transform="matrix(1,0,0,1,-393.653,640.555)">
            <path d="M1270.18,688.534L1270.18,711.955L1389.45,642.758L1389.09,619.883L1270.18,688.534Z" style="fill:none;stroke:black;stroke-width:1px;"/>
        </g>
        <g transform="matrix(1,0,0,1,-526.159,164.228)">
            <path d="M1270.18,688.534L1250.06,675.925L1249.66,700.14L1270.15,711.971" style="fill:rgb(56,142,157);stroke:black;stroke-width:1px;"/>
        </g>
        <g transform="matrix(1,0,0,1,-505.638,361.763)">
            <path d="M1270.18,688.534L1250.06,675.925L1249.66,700.14L1270.15,711.971" style="fill:rgb(56,142,157);stroke:black;stroke-width:1px;"/>
        </g>
        <g transform="matrix(1,0,0,1,-393.653,640.555)">
            <path d="M1270.18,688.534L1250.06,675.925L1249.66,700.14L1270.15,711.971" style="fill:rgb(56,142,157);stroke:black;stroke-width:1px;"/>
        </g>
        <g transform="matrix(1,0,0,1,-526.159,164.228)">
            <path d="M1388.74,619.681L1368.11,607.768C1368.11,607.768 1349.29,617.908 1349.65,618.425C1350,618.942 1361.65,625.325 1361.65,625.325L1282.44,672.059L1270.18,664.305L1250.06,675.925L1270.18,688.534L1388.74,619.681Z" style="fill:rgb(150,216,228);stroke:black;stroke-width:1px;"/>
        </g>
        <g transform="matrix(1,0,0,1,-505.638,361.763)">
            <path d="M1388.74,619.681L1368.11,607.768C1368.11,607.768 1349.29,617.908 1349.65,618.425C1350,618.942 1361.65,625.325 1361.65,625.325L1282.44,672.059L1270.18,664.305L1250.06,675.925L1270.18,688.534L1388.74,619.681Z" style="fill:rgb(150,216,228);stroke:black;stroke-width:1px;"/>
        </g>
        <g transform="matrix(1,0,0,1,-393.653,640.555)">
            <path d="M1388.74,619.681L1368.11,607.768C1368.11,607.768 1349.29,617.908 1349.65,618.425C1350,618.942 1361.65,625.325 1361.65,625.325L1282.44,672.059L1270.18,664.305L1250.06,675.925L1270.18,688.534L1388.74,619.681Z" style="fill:rgb(150,216,228);stroke:black;stroke-width:1px;"/>
        </g>
        <g transform="matrix(1,0,0,1,-526.159,164.228)">
            <path d="M1349.65,618.425L1349.87,632.277L1361.65,625.325L1349.65,618.425Z" style="fill:rgb(56,142,157);stroke:black;stroke-width:1px;"/>
        </g>
        <g transform="matrix(1,0,0,1,-505.638,361.763)">
            <path d="M1349.65,618.425L1349.87,632.277L1361.65,625.325L1349.65,618.425Z" style="fill:rgb(56,142,157);stroke:black;stroke-width:1px;"/>
        </g>
        <g transform="matrix(1,0,0,1,-393.653,640.555)">
            <path d="M1349.65,618.425L1349.87,632.277L1361.65,625.325L1349.65,618.425Z" style="fill:rgb(56,142,157);stroke:black;stroke-width:1px;"/>
        </g>
        <g transform="matrix(1,0,0,1,-526.159,164.228)">
            <path d="M1125.09,1094.04L1133.37,1088.92L1253.67,1156.55L1626.79,940.921L1507.77,872.74L1514.85,868.467L1641.54,941.609L1254.35,1167.02L1125.09,1094.04Z" style="fill:rgb(150,216,228);stroke:black;stroke-width:1px;"/>
        </g>
    </g>
</svg>
